<?xml version="1.0" encoding="UTF-8" standalone="no"?>
<svg
   xmlns:dc="http://purl.org/dc/elements/1.1/"
   xmlns:cc="http://creativecommons.org/ns#"
   xmlns:rdf="http://www.w3.org/1999/02/22-rdf-syntax-ns#"
   xmlns:svg="http://www.w3.org/2000/svg"
   xmlns="http://www.w3.org/2000/svg"
   xmlns:sodipodi="http://sodipodi.sourceforge.net/DTD/sodipodi-0.dtd"
   xmlns:inkscape="http://www.inkscape.org/namespaces/inkscape"
   width="117.25475mm"
   height="25.50585mm"
   viewBox="0 0 117.25475 25.50585"
   version="1.1"
   id="svg119"
   sodipodi:docname="logo.svg"
   inkscape:version="1.0 (4035a4f, 2020-05-01)">
  <defs
     id="defs113">
    <rect
       id="rect124"
       height="25.215921"
       width="116.85427"
       y="13.608221"
       x="-13.756338" />
  </defs>
  <sodipodi:namedview
     id="base"
     pagecolor="#ffffff"
     bordercolor="#666666"
     borderopacity="1.0"
     inkscape:pageopacity="0.0"
     inkscape:pageshadow="2"
     inkscape:zoom="0.86040217"
     inkscape:cx="242.70425"
     inkscape:cy="227.01074"
     inkscape:document-units="mm"
     inkscape:current-layer="text122"
     inkscape:document-rotation="0"
     showgrid="false"
     inkscape:window-width="1246"
     inkscape:window-height="729"
     inkscape:window-x="34"
     inkscape:window-y="23"
     inkscape:window-maximized="0" />
  <metadata
     id="metadata116">
    <rdf:RDF>
      <cc:Work
         rdf:about="">
        <dc:format>image/svg+xml</dc:format>
        <dc:type
           rdf:resource="http://purl.org/dc/dcmitype/StillImage" />
        <dc:title></dc:title>
      </cc:Work>
    </rdf:RDF>
  </metadata>
  <g
     inkscape:label="Layer 1"
     inkscape:groupmode="layer"
     id="layer1"
     transform="translate(-0.78781,-1.750795)">
    <g
       style="font-style:normal;font-weight:normal;font-size:35.2778px;line-height:1.25;font-family:sans-serif;letter-spacing:-2.64583px;word-spacing:-0.0132292px;white-space:pre;shape-inside:url(#rect12-3);fill:#000000;fill-opacity:1;stroke:none"
       id="text10-6"
       transform="translate(14.851659,-11.857426)"
       aria-label="LE   SAVOIR">
      <g
         style="font-style:normal;font-variant:normal;font-weight:normal;font-stretch:normal;font-size:10.5833px;line-height:1.25;font-family:'Century Schoolbook';-inkscape-font-specification:'Century Schoolbook, Normal';font-variant-ligatures:normal;font-variant-caps:normal;font-variant-numeric:normal;font-variant-east-asian:normal;letter-spacing:-1.41186px;white-space:pre;shape-inside:url(#rect124);fill:#d40000;fill-opacity:1;stroke:none"
         id="text122"
         transform="matrix(1.2339481,0,0,1.8214185,9.3064344,-8.8212269)"
         aria-label="CHINA  SUCKERS">
        <path
           id="path190"
           style="letter-spacing:-0.882428px"
           d="m -7.6322216,16.259907 0.3565662,-0.738971 h 0.3255605 l 0.1343583,3.074738 h -0.346231 Q -7.503031,17.2986 -8.0197937,16.683652 q -0.6407857,-0.769976 -1.5296175,-0.769976 -0.9611788,0 -1.5657908,0.857826 -0.604612,0.857826 -0.604612,2.904206 0,1.72082 0.692462,2.625154 0.589109,0.764809 1.6536401,0.764809 0.9301729,0 1.5606233,-0.594277 0.6304505,-0.599445 0.8216527,-1.803502 h 0.3669015 q -0.1601965,1.364254 -0.9353405,2.098057 -0.775144,0.733803 -1.9533629,0.733803 -0.9560112,0 -1.7569932,-0.480589 -0.795814,-0.48059 -1.276404,-1.379757 -0.475421,-0.904335 -0.475421,-1.979201 0,-1.142045 0.490924,-2.144565 0.496092,-1.00252 1.266069,-1.503779 0.769976,-0.506428 1.6588079,-0.506428 0.4960922,0 0.9611786,0.170532 0.4650864,0.170532 1.0128549,0.583942 z" />
        <path
           id="path192"
           style="letter-spacing:-0.882428px"
           d="m -6.4941079,15.66563 h 3.2607725 v 0.387572 h -0.5994447 q -0.3152252,0 -0.4134101,0.113687 -0.093017,0.108521 -0.093017,0.537434 v 2.356437 h 3.49848332 v -2.356437 q 0,-0.444416 -0.0930173,-0.547769 -0.0878496,-0.103352 -0.42374544,-0.103352 H -1.9155905 V 15.66563 h 3.2452696 v 0.387572 H 0.73540199 q -0.22220795,0 -0.31522524,0.05684 -0.0878497,0.05684 -0.14469355,0.196369 -0.0310058,0.08785 -0.0310058,0.459919 v 5.498355 q 0,0.397907 0.0671792,0.480589 0.1343583,0.1757 0.49092455,0.1757 H 1.3296791 v 0.387572 h -3.2452696 v -0.387572 h 0.5581036 q 0.3307282,0 0.44958357,-0.180867 0.0671791,-0.09818 0.0671791,-0.516763 v -2.65616 H -4.3392075 v 2.697501 q 0,0.403075 0.062011,0.485757 0.1291907,0.170532 0.4444159,0.170532 h 0.5994447 v 0.387572 h -3.2607725 v -0.387572 h 0.6252829 q 0.165364,0 0.2635489,-0.06718 0.098185,-0.06718 0.1446936,-0.191202 0.025838,-0.08268 0.025838,-0.439248 v -5.519025 q 0,-0.428913 -0.098185,-0.537434 -0.093017,-0.113687 -0.4134101,-0.113687 h -0.5477685 z" />
        <path
           id="path194"
           style="letter-spacing:-0.882428px"
           d="m 1.3464178,15.66563 h 3.5243214 v 0.387572 H 4.2661269 q -0.4030749,0 -0.5115951,0.103352 -0.1033525,0.09819 -0.1033525,0.423746 v 5.787742 q 0,0.346231 0.093017,0.43408 0.124023,0.118856 0.4495835,0.118856 H 4.8707392 V 23.30855 H 1.3464178 v -0.387572 h 0.6666238 q 0.3513986,0 0.4547512,-0.103353 0.1033525,-0.103352 0.1033525,-0.449583 V 16.5803 q 0,-0.330729 -0.093017,-0.408243 Q 2.3334345,16.053202 1.9458625,16.053202 H 1.3464178 Z" />
        <path
           id="path196"
           style="letter-spacing:-0.882428px"
           d="m 4.8254667,15.66563 h 1.8241722 l 4.6095231,6.004782 v -4.345974 q 0,-0.656289 -0.299722,-0.971514 -0.273885,-0.289387 -0.816485,-0.299722 V 15.66563 h 2.671663 v 0.387572 q -0.408243,0 -0.60978,0.113687 -0.201538,0.113688 -0.351399,0.413411 -0.149861,0.299722 -0.149861,0.656288 V 23.30855 H 11.217821 L 6.4481015,17.060889 v 4.609523 q 0,0.625283 0.3152252,0.93534 0.3152253,0.30489 0.9766815,0.315226 V 23.30855 H 4.8254667 v -0.387572 q 0.5477684,-0.02067 0.8681613,-0.356567 0.3203928,-0.341063 0.3203928,-0.831988 v -5.183129 l -0.08785,-0.09302 Q 5.6677898,16.177225 5.5592697,16.125548 5.4094085,16.053202 5.1716977,16.053202 h -0.346231 z" />
        <path
           id="path198"
           style="letter-spacing:-0.882428px"
           d="m 15.823412,15.505433 h 0.346231 l 2.74401,6.991799 q 0.165364,0.423746 0.676959,0.423746 h 0.237711 v 0.387572 h -3.0489 v -0.387572 h 0.242879 q 0.475421,0 0.671791,-0.103353 0.134358,-0.07235 0.134358,-0.222208 0,-0.08785 -0.03617,-0.186034 L 17.15666,20.786748 H 14.138766 L 13.7822,21.716921 q -0.139526,0.372069 -0.139526,0.589109 0,0.253214 0.232543,0.434081 0.237711,0.180867 0.687294,0.180867 h 0.258382 v 0.387572 h -2.769848 v -0.387572 q 0.444416,0 0.702797,-0.191203 0.258381,-0.196369 0.475422,-0.73897 z m -0.149861,1.472774 -1.369421,3.405466 h 2.702669 z" />
        <path
           id="path200"
           style="letter-spacing:-0.882428px"
           d="m 26.808206,16.244404 0.465086,-0.666624 h 0.377237 l 0.03101,2.785351 h -0.341064 q -0.320393,-1.281572 -0.950843,-1.870681 -0.625283,-0.58911 -1.441768,-0.58911 -0.682127,0 -1.116207,0.408243 -0.434081,0.408242 -0.434081,0.997352 0,0.366901 0.165364,0.645953 0.165364,0.273884 0.490925,0.449584 0.330728,0.170531 1.24023,0.366901 1.276404,0.279052 1.787999,0.563272 0.516762,0.284219 0.769976,0.7183 0.253214,0.428913 0.253214,1.007687 0,1.033525 -0.69763,1.715652 -0.692462,0.676959 -1.793166,0.676959 -1.183387,0 -2.056716,-0.764809 l -0.583941,0.713133 h -0.37207 v -2.96105 h 0.37207 q 0.21704,1.224727 0.971513,1.932692 0.754474,0.707965 1.70015,0.707965 0.764808,0 1.245398,-0.449584 0.485757,-0.454751 0.485757,-1.100704 0,-0.366902 -0.180867,-0.640786 -0.180867,-0.279052 -0.573607,-0.465086 -0.39274,-0.191202 -1.54512,-0.459919 -1.266069,-0.299722 -1.725988,-0.671791 -0.645953,-0.527098 -0.645953,-1.493445 0,-1.007687 0.640786,-1.648472 0.645953,-0.645954 1.648473,-0.645954 0.480589,0 0.91467,0.170532 0.43408,0.170532 0.899167,0.568439 z" />
        <path
           id="path202"
           style="letter-spacing:-0.882428px"
           d="m 27.987662,15.66563 h 3.529489 v 0.387572 h -0.707964 q -0.28422,0 -0.397908,0.09302 -0.113687,0.09302 -0.113687,0.284219 v 4.314969 q 0,0.676959 0.118855,1.02319 0.175699,0.511595 0.640786,0.816485 0.470254,0.30489 1.224727,0.30489 1.043861,0 1.591629,-0.537433 0.547769,-0.542601 0.547769,-1.446936 v -3.508818 q 0,-0.465087 -0.06718,-0.702798 -0.06201,-0.242878 -0.186035,-0.377236 -0.118855,-0.134359 -0.30489,-0.19637 -0.186035,-0.06718 -0.620115,-0.06718 V 15.66563 h 2.888703 v 0.387572 h -0.206705 q -0.485757,0 -0.723468,0.263549 -0.23771,0.258381 -0.23771,0.754473 v 3.756865 q 0,1.229895 -0.702798,1.886184 -0.790647,0.73897 -2.103224,0.73897 -1.136878,0 -1.787999,-0.320393 -0.651121,-0.32556 -0.945675,-0.930173 -0.222208,-0.459918 -0.222208,-1.157548 v -4.614691 q 0,-0.175699 -0.124023,-0.273884 -0.118856,-0.103352 -0.361734,-0.103352 h -0.728636 z" />
        <path
           id="path204"
           style="letter-spacing:-0.882428px"
           d="m 41.569423,16.259907 0.356566,-0.738971 h 0.325561 l 0.134358,3.074738 h -0.346231 q -0.341063,-1.297074 -0.857826,-1.912022 -0.640785,-0.769976 -1.529617,-0.769976 -0.961179,0 -1.565791,0.857826 -0.604613,0.857826 -0.604613,2.904206 0,1.72082 0.692462,2.625154 0.58911,0.764809 1.653641,0.764809 0.930173,0 1.560623,-0.594277 0.630451,-0.599445 0.821653,-1.803502 h 0.366901 q -0.160196,1.364254 -0.93534,2.098057 -0.775144,0.733803 -1.953363,0.733803 -0.956011,0 -1.756993,-0.480589 -0.795815,-0.48059 -1.276404,-1.379757 -0.475421,-0.904335 -0.475421,-1.979201 0,-1.142045 0.490924,-2.144565 0.496092,-1.00252 1.266069,-1.503779 0.769976,-0.506428 1.658808,-0.506428 0.496092,0 0.961178,0.170532 0.465087,0.170532 1.012855,0.583942 z" />
        <path
           id="path206"
           style="letter-spacing:-0.882428px"
           d="m 42.640358,15.66563 h 3.493316 v 0.387572 h -0.744139 q -0.237711,0 -0.366901,0.124023 -0.129191,0.124023 -0.129191,0.315225 v 3.550159 l 2.878368,-3.074737 q 0.248046,-0.268717 0.248046,-0.506428 0,-0.180867 -0.170531,-0.294555 -0.170532,-0.113687 -0.558104,-0.113687 H 47.079349 V 15.66563 h 3.13675 v 0.387572 H 49.97322 q -0.315225,0 -0.692462,0.186034 -0.377236,0.186035 -0.697629,0.516763 l -1.772496,1.844843 2.537304,3.741361 q 0.211873,0.315226 0.439249,0.449584 0.227375,0.129191 0.537433,0.129191 h 0.279052 v 0.387572 h -3.446807 v -0.387572 h 0.392739 q 0.428913,0 0.568439,-0.07235 0.144694,-0.07235 0.144694,-0.180867 0,-0.09818 -0.06201,-0.19637 l -2.108391,-3.100576 -1.19889,1.286739 v 1.881016 q 0,0.1757 0.103353,0.258382 0.165364,0.124023 0.392739,0.124023 h 0.744139 v 0.387572 h -3.493316 v -0.387572 h 0.671791 q 0.258382,0 0.382405,-0.103353 0.124023,-0.10852 0.124023,-0.279052 v -6.102967 q 0,-0.180867 -0.139526,-0.279052 -0.139526,-0.103352 -0.470254,-0.103352 h -0.568439 z" />
        <path
           id="path208"
           style="letter-spacing:-0.882428px"
           d="m 50.24834,15.66563 h 6.056458 l 0.144694,2.578645 h -0.346231 q -0.206705,-1.21956 -0.656289,-1.705316 -0.444416,-0.485757 -1.162716,-0.485757 h -1.498612 q -0.180867,0 -0.273884,0.09819 -0.09302,0.09818 -0.09302,0.299722 v 2.723339 h 0.656289 q 0.527097,0 0.852658,-0.377237 0.330728,-0.377236 0.356566,-1.157548 h 0.356566 v 3.539824 H 54.284256 Q 54.258418,20.300991 53.922522,19.923754 53.591794,19.54135 53.018188,19.54135 h -0.599445 v 3.038564 q 0,0.165364 0.10852,0.253214 0.113688,0.08785 0.372069,0.08785 h 1.183387 q 1.927525,0 2.222079,-2.459791 h 0.372069 l -0.12919,2.847363 H 50.24834 v -0.387572 h 0.52193 q 0.30489,0 0.428913,-0.103353 0.124023,-0.10852 0.124023,-0.310058 v -6.056458 q 0,-0.201538 -0.10852,-0.299722 -0.10852,-0.09819 -0.341063,-0.09819 H 50.24834 Z" />
        <path
           id="path210"
           style="letter-spacing:-0.882428px"
           d="m 56.59025,15.66563 h 3.948067 q 1.147213,0 1.777663,0.52193 0.635618,0.52193 0.635618,1.369421 0,0.506427 -0.253213,0.904335 -0.248046,0.392739 -0.723468,0.63045 -0.470254,0.232543 -1.483109,0.335896 0.738971,0.201537 1.018022,0.397907 0.279052,0.191202 0.444416,0.50126 0.170532,0.30489 0.387572,1.250566 0.155029,0.676959 0.330729,0.925005 0.134358,0.191202 0.289387,0.191202 0.160196,0 0.294554,-0.232543 0.139526,-0.237711 0.170532,-0.831988 h 0.351399 q -0.09819,1.756993 -1.297075,1.756993 -0.377236,0 -0.656288,-0.191202 -0.273884,-0.191202 -0.41341,-0.563272 -0.108521,-0.279051 -0.242879,-1.462438 -0.07751,-0.687294 -0.248046,-0.976681 -0.165364,-0.289387 -0.52193,-0.465087 -0.356567,-0.175699 -0.852659,-0.175699 h -0.625283 v 3.002391 q 0,0.191202 0.09819,0.268717 0.124023,0.09819 0.387572,0.09819 h 0.733803 V 23.30855 H 56.59025 v -0.387572 h 0.749306 q 0.248046,0 0.361734,-0.09819 0.118855,-0.09819 0.118855,-0.268717 v -6.108135 q 0,-0.19637 -0.118855,-0.294554 -0.118856,-0.09819 -0.361734,-0.09819 H 56.59025 Z m 2.330599,3.513986 h 0.904335 q 0.909502,0 1.421098,-0.341064 0.516762,-0.346231 0.516762,-1.224727 0,-0.604612 -0.19637,-0.956011 -0.191202,-0.351399 -0.506427,-0.480589 -0.315225,-0.129191 -1.24023,-0.129191 -0.60978,0 -0.754474,0.08785 -0.144694,0.08268 -0.144694,0.289387 z" />
        <path
           id="path212"
           style="letter-spacing:-0.882428px"
           d="m 67.980939,16.244404 0.465086,-0.666624 h 0.377237 l 0.03101,2.785351 h -0.341064 q -0.320392,-1.281572 -0.950843,-1.870681 -0.625283,-0.58911 -1.441768,-0.58911 -0.682126,0 -1.116207,0.408243 -0.434081,0.408242 -0.434081,0.997352 0,0.366901 0.165364,0.645953 0.165364,0.273884 0.490925,0.449584 0.330728,0.170531 1.24023,0.366901 1.276404,0.279052 1.787999,0.563272 0.516763,0.284219 0.769977,0.7183 0.253213,0.428913 0.253213,1.007687 0,1.033525 -0.697629,1.715652 -0.692462,0.676959 -1.793167,0.676959 -1.183386,0 -2.056715,-0.764809 l -0.583942,0.713133 h -0.372069 v -2.96105 h 0.372069 q 0.21704,1.224727 0.971514,1.932692 0.754473,0.707965 1.700149,0.707965 0.764809,0 1.245398,-0.449584 0.485757,-0.454751 0.485757,-1.100704 0,-0.366902 -0.180867,-0.640786 -0.180867,-0.279052 -0.573607,-0.465086 -0.392739,-0.191202 -1.54512,-0.459919 -1.266069,-0.299722 -1.725987,-0.671791 -0.645954,-0.527098 -0.645954,-1.493445 0,-1.007687 0.640786,-1.648472 0.645953,-0.645954 1.648473,-0.645954 0.480589,0 0.91467,0.170532 0.43408,0.170532 0.899167,0.568439 z" />
      </g>
      <path
         transform="rotate(-32.766318,98.485261,33.903965)"
         inkscape:transform-center-y="0.049627854"
         inkscape:transform-center-x="0.39980949"
         d="m 100.33033,38.209122 -2.363979,-2.021433 -3.005381,0.801406 1.191987,-2.872932 -1.690896,-2.61064 3.100665,0.245863 1.960351,-2.41487 0.724333,3.024884 2.90245,1.118168 -2.653,1.623618 z"
         inkscape:randomized="0"
         inkscape:rounded="0"
         inkscape:flatsided="false"
         sodipodi:arg2="1.7942231"
         sodipodi:arg1="1.1659045"
         sodipodi:r2="2.3419359"
         sodipodi:r1="4.6838713"
         sodipodi:cy="33.903965"
         sodipodi:cx="98.48526"
         sodipodi:sides="5"
         id="path128"
         style="fill:#ff7f2a;stroke-width:0.264583"
         sodipodi:type="star" />
      <path
         sodipodi:type="star"
         style="font-style:normal;font-weight:normal;font-size:35.2778px;line-height:1.25;font-family:sans-serif;letter-spacing:-2.64583px;word-spacing:-0.0132292px;white-space:pre;shape-inside:url(#rect12-3);fill:#ff7f2a;fill-opacity:1;stroke:none;stroke-width:0.264583"
         id="path128-0"
         sodipodi:sides="5"
         sodipodi:cx="-9.1568623"
         sodipodi:cy="18.967057"
         sodipodi:r1="4.6838717"
         sodipodi:r2="2.3419359"
         sodipodi:arg1="1.1659045"
         sodipodi:arg2="1.7942231"
         inkscape:flatsided="false"
         inkscape:rounded="0"
         inkscape:randomized="0"
         d="m -7.3117946,23.272214 -2.3639763,-2.021433 -3.0053821,0.801406 1.191988,-2.872932 -1.690896,-2.610641 3.100665,0.245864 1.9603507,-2.414871 0.7243285,3.024884 2.9024598,1.118168 -2.6530058,1.623618 z"
         inkscape:transform-center-x="-0.32070175"
         inkscape:transform-center-y="-0.131146" />
    </g>
  </g>
</svg>
